<svg 
 xmlns="http://www.w3.org/2000/svg"
 xmlns:xlink="http://www.w3.org/1999/xlink"
 width="2279px" height="2061px">
<path fill-rule="evenodd"  fill="rgb(0, 0, 0)"
 d="M0.0,1070.999 C400.156,1293.343 343.921,1224.203 441.0,1321.0 C538.78,1417.796 537.93,1418.968 592.0,1510.0 C645.328,1539.937 704.0,1564.999 704.0,1564.999 C766.187,1738.671 765.687,1743.359 837.0,1828.999 C908.312,1914.640 1095.484,1929.765 1157.999,1980.999 C1220.515,2032.234 1233.0,2061.0 1233.0,2061.0 L1319.999,1913.999 C1319.999,1913.999 1433.765,1956.46 1477.999,1923.999 C1522.234,1891.953 1590.328,1735.781 1603.999,1689.0 C1617.671,1642.218 1637.0,1474.0 1637.0,1474.0 L1799.999,1462.0 C1799.999,1462.0 2011.78,1497.312 2061.999,1487.999 C2112.921,1478.687 2161.999,1453.0 2161.999,1453.0 C2161.999,1453.0 2284.843,1400.999 2278.0,1369.0 C2271.156,1336.999 2237.218,1292.187 2199.0,1274.0 C2160.781,1255.812 2071.0,1276.0 2071.0,1276.0 L1963.999,1276.0 L1697.0,1089.999 C1697.0,1089.999 1844.765,1005.468 1875.0,972.0 C1905.234,938.531 1949.921,856.953 1935.999,820.0 C1922.78,783.46 1881.328,744.140 1838.999,736.999 C1796.671,729.859 1733.999,763.0 1733.999,763.0 C1733.999,763.0 1742.796,750.421 1685.0,757.999 C1627.203,765.578 1587.999,791.0 1587.999,791.0 C1587.999,791.0 1497.109,760.15 1409.999,756.999 C1322.890,753.984 1240.0,774.0 1240.0,774.0 C1240.0,774.0 1097.593,532.796 860.0,309.999 C622.406,87.203 560.0,77.999 560.0,77.999 L688.0,2.999 L1.0,0.0 L0.0,1070.999 Z"/>
</svg>